<mxfile host="app.diagrams.net" modified="2024-05-13T08:38:49.695Z" agent="Mozilla/5.0 (Windows NT 10.0; Win64; x64) AppleWebKit/537.36 (KHTML, like Gecko) Chrome/124.0.0.0 Safari/537.36" version="24.4.0" etag="IMDRReOO8oNF0VBAbHhR" type="github">
  <diagram name="Page-1" id="0MKdjy2x28Io-S70GsyO">
    <mxGraphModel>
      <root>
        <mxCell id="0" />
        <mxCell id="1" parent="0" />
      </root>
    </mxGraphModel>
  </diagram>
</mxfile>
